<?xml version="1.0" encoding="utf-8"?>
<svg xmlns="http://www.w3.org/2000/svg" viewBox="0 0 64 64" width="512" height="512">
  <path fill="#72caaf" d="M52,11H44a1,1,0,0,0-1,1V29.48L14.13,11a2,2,0,0,0-3.08,1.68V51.27a2,2,0,0,0,3.08,1.68L43,34.44V52a1,1,0,0,0,1,1h8a1,1,0,0,0,1-1V12A1,1,0,0,0,52,11Z" />
  <path fill="#5dbc9d" d="M36.23,33,17.12,45.27a2.42,2.42,0,0,0-.76,3.29h0a2.42,2.42,0,0,0,3.38.79L38.87,37.07a2.42,2.42,0,0,0,.75-3.31l0,0A2.42,2.42,0,0,0,36.23,33Z" />
  <path fill="#97e0bb" d="M48 11H53V53H48z" />
  <path fill="#8d6c9f" d="M52,10H44a2,2,0,0,0-2,2V27.65L14.67,10.13a3,3,0,0,0-4.62,2.53V51.27a3,3,0,0,0,1.56,2.63,3,3,0,0,0,3.06-.11L42,36.27V52a2,2,0,0,0,2,2h8a2,2,0,0,0,2-2V12A2,2,0,0,0,52,10Zm0,42H50s0,0,0,0a1,1,0,0,0-1-1H47a1,1,0,0,0-1,1s0,0,0,0H44V34.44a1,1,0,0,0-1.54-.84L13.59,52.11a1,1,0,0,1-1.54-.84V12.66a1,1,0,0,1,.52-.88,1,1,0,0,1,.49-.13,1,1,0,0,1,.53.16L42.46,30.32A1,1,0,0,0,44,29.48V12h2a1,1,0,0,0,1,1h2a1,1,0,0,0,1-1h2Z" />
  <path fill="#8d6c9f" d="M34.88 32.61l-1.73 1.11a1 1 0 1 0 1.08 1.68L36 34.3a1 1 0 1 0-1.08-1.68zM29.67 36L17.61 43.68a1 1 0 1 0 1.08 1.68l12.06-7.73A1 1 0 1 0 29.67 36zM49 26H47a1 1 0 0 0 0 2h2a1 1 0 0 0 0-2zM49 31H47a1 1 0 0 0 0 2h2a1 1 0 0 0 0-2zM49 36H47a1 1 0 0 0 0 2h2a1 1 0 0 0 0-2zM49 41H47a1 1 0 0 0 0 2h2a1 1 0 0 0 0-2zM49 46H47a1 1 0 0 0 0 2h2a1 1 0 0 0 0-2zM49 16H47a1 1 0 0 0 0 2h2a1 1 0 1 0 0-2zM49 21H47a1 1 0 0 0 0 2h2a1 1 0 0 0 0-2z" />
</svg>