<?xml version="1.0" encoding="utf-8"?>
<svg xmlns="http://www.w3.org/2000/svg" viewBox="0 0 64 64" width="512" height="512">
  <path fill="#72caaf" d="M12.05,52.92h8a1,1,0,0,0,1-1V34.44L49.92,52.95A2,2,0,0,0,53,51.27V12.66A2,2,0,0,0,49.92,11L21.05,29.48V11.92a1,1,0,0,0-1-1h-8a1,1,0,0,0-1,1v40A1,1,0,0,0,12.05,52.92Z" />
  <path fill="#97e0bb" d="M27.82,31,46.93,18.65a2.42,2.42,0,0,0,.76-3.29h0a2.42,2.42,0,0,0-3.38-.79L25.18,26.85a2.42,2.42,0,0,0-.75,3.31l0,0A2.42,2.42,0,0,0,27.82,31Z" />
  <path fill="#5dbc9d" d="M11.05 10.92H16.05V52.92H11.05z" transform="rotate(180 13.55 31.925)" />
  <path fill="#8d6c9f" d="M12.05,53.92h8a2,2,0,0,0,2-2V36.27L49.38,53.79A3,3,0,0,0,54,51.27V12.66A3,3,0,0,0,52.44,10a3,3,0,0,0-3.06.11L22.05,27.65V11.92a2,2,0,0,0-2-2h-8a2,2,0,0,0-2,2v40A2,2,0,0,0,12.05,53.92Zm0-42h2s0,0,0,0a1,1,0,0,0,1,1h2a1,1,0,0,0,1-1s0,0,0,0h2V29.48a1,1,0,0,0,1.54.84L50.46,11.82a1,1,0,0,1,1.54.84V51.27a1,1,0,0,1-.52.88,1,1,0,0,1-.49.13,1,1,0,0,1-.53-.16L21.59,33.6a1,1,0,0,0-1.54.84V51.92h-2a1,1,0,0,0-1-1h-2a1,1,0,0,0-1,1h-2Z" />
  <path fill="#8d6c9f" d="M29.17 31.31L30.9 30.2a1 1 0 1 0-1.08-1.68l-1.73 1.11a1 1 0 0 0 1.08 1.68zM34.38 28l12.06-7.73a1 1 0 1 0-1.08-1.68L33.3 26.29A1 1 0 1 0 34.38 28zM15.09 38h2a1 1 0 0 0 0-2h-2a1 1 0 0 0 0 2zM15.09 33h2a1 1 0 0 0 0-2h-2a1 1 0 1 0 0 2zM15.09 28h2a1 1 0 0 0 0-2h-2a1 1 0 1 0 0 2zM15.09 23h2a1 1 0 0 0 0-2h-2a1 1 0 1 0 0 2zM15.09 18h2a1 1 0 0 0 0-2h-2a1 1 0 1 0 0 2zM15.09 48h2a1 1 0 0 0 0-2h-2a1 1 0 0 0 0 2zM15.09 43h2a1 1 0 0 0 0-2h-2a1 1 0 0 0 0 2z" />
</svg>